Seven-Heavy.ufo
<glyph name="exclam" format="1">
  <advance width="164"/>
  <unicode hex="0021"/>
  <outline>
    <contour>
      <point x="8" y="73" type="curve" smooth="yes"/>
      <point x="8" y="116"/>
      <point x="37" y="143"/>
      <point x="83" y="143" type="curve" smooth="yes"/>
      <point x="130" y="143"/>
      <point x="158" y="116"/>
      <point x="158" y="73" type="curve" smooth="yes"/>
      <point x="158" y="27"/>
      <point x="130" y="0"/>
      <point x="83" y="0" type="curve" smooth="yes"/>
      <point x="37" y="0"/>
      <point x="8" y="27"/>
    </contour>
    <contour>
      <point x="50" y="270" type="line"/>
      <point x="13" y="651" type="line"/>
      <point x="13" y="880" type="line"/>
      <point x="151" y="880" type="line"/>
      <point x="151" y="650" type="line"/>
      <point x="111" y="270" type="line"/>
    </contour>
  </outline>
</glyph>
<glyph name="hyphen" format="1">
  <advance width="500"/>
  <unicode hex="002D"/>
  <outline>
    <contour>
      <point x="82" y="493" type="line"/>
      <point x="82" y="549" type="line"/>
      <point x="418" y="549" type="line"/>
      <point x="418" y="493" type="line"/>
    </contour>
  </outline>
</glyph>
<glyph name="one" format="1">
  <advance width="744"/>
  <unicode hex="0031"/>
  <outline>
    <contour>
      <point x="339" y="0" type="line"/>
      <point x="339" y="861" type="line"/>
      <point x="425" y="840" type="line"/>
      <point x="170" y="514" type="line"/>
      <point x="82" y="592" type="line"/>
      <point x="317" y="880" type="line"/>
      <point x="477" y="880" type="line"/>
      <point x="477" y="0" type="line"/>
    </contour>
  </outline>
</glyph>
<glyph name="two" format="1">
  <advance width="744"/>
  <unicode hex="0032"/>
  <outline>
    <contour>
      <point x="69" y="0" type="line"/>
      <point x="69" y="60" type="line" smooth="yes"/>
      <point x="69" y="337"/>
      <point x="551" y="404"/>
      <point x="551" y="638" type="curve" smooth="yes"/>
      <point x="551" y="752"/>
      <point x="465" y="794"/>
      <point x="370" y="794" type="curve" smooth="yes"/>
      <point x="291" y="794"/>
      <point x="197" y="764"/>
      <point x="155" y="682" type="curve"/>
      <point x="61" y="737" type="line"/>
      <point x="112" y="869"/>
      <point x="266" y="900"/>
      <point x="373" y="900" type="curve" smooth="yes"/>
      <point x="563" y="900"/>
      <point x="671" y="794"/>
      <point x="671" y="646" type="curve" smooth="yes"/>
      <point x="671" y="308"/>
      <point x="196" y="283"/>
      <point x="196" y="53" type="curve"/>
      <point x="127" y="118" type="line"/>
      <point x="647" y="118" type="line"/>
      <point x="647" y="0" type="line"/>
    </contour>
  </outline>
</glyph>
<glyph name="three" format="1">
  <advance width="744"/>
  <unicode hex="0033"/>
  <outline>
    <contour>
      <point x="49" y="743" type="line"/>
      <point x="101" y="865"/>
      <point x="237" y="900"/>
      <point x="362" y="900" type="curve" smooth="yes"/>
      <point x="575" y="900"/>
      <point x="683" y="820"/>
      <point x="683" y="656" type="curve" smooth="yes"/>
      <point x="683" y="537"/>
      <point x="625" y="466"/>
      <point x="445" y="433" type="curve"/>
      <point x="445" y="475" type="line"/>
      <point x="617" y="446"/>
      <point x="693" y="354"/>
      <point x="693" y="235" type="curve" smooth="yes"/>
      <point x="693" y="76"/>
      <point x="562" y="-20"/>
      <point x="358" y="-20" type="curve" smooth="yes"/>
      <point x="211" y="-20"/>
      <point x="91" y="18"/>
      <point x="36" y="160" type="curve"/>
      <point x="131" y="217" type="line"/>
      <point x="179" y="105"/>
      <point x="254" y="84"/>
      <point x="364" y="84" type="curve" smooth="yes"/>
      <point x="494" y="84"/>
      <point x="554" y="132"/>
      <point x="554" y="228" type="curve" smooth="yes"/>
      <point x="554" y="322"/>
      <point x="528" y="402"/>
      <point x="343" y="402" type="curve"/>
      <point x="343" y="495" type="line"/>
      <point x="497" y="495"/>
      <point x="543" y="545"/>
      <point x="543" y="645" type="curve" smooth="yes"/>
      <point x="543" y="727"/>
      <point x="502" y="793"/>
      <point x="378" y="793" type="curve" smooth="yes"/>
      <point x="270" y="793"/>
      <point x="190" y="778"/>
      <point x="146" y="687" type="curve"/>
    </contour>
  </outline>
</glyph>
<glyph name="five" format="1">
  <advance width="744"/>
  <unicode hex="0035"/>
  <outline>
    <contour>
      <point x="118" y="464" type="line"/>
      <point x="156" y="880" type="line"/>
      <point x="631" y="880" type="line"/>
      <point x="631" y="772" type="line"/>
      <point x="224" y="772" type="line"/>
      <point x="271" y="859" type="line"/>
      <point x="228" y="445" type="line"/>
      <point x="185" y="513" type="line"/>
      <point x="202" y="522"/>
      <point x="270" y="558"/>
      <point x="387" y="558" type="curve" smooth="yes"/>
      <point x="544" y="558"/>
      <point x="689" y="477"/>
      <point x="689" y="272" type="curve" smooth="yes"/>
      <point x="689" y="80"/>
      <point x="549" y="-20"/>
      <point x="357" y="-20" type="curve" smooth="yes"/>
      <point x="203" y="-20"/>
      <point x="106" y="31"/>
      <point x="62" y="147" type="curve"/>
      <point x="148" y="207" type="line"/>
      <point x="174" y="150"/>
      <point x="211" y="83"/>
      <point x="361" y="83" type="curve" smooth="yes"/>
      <point x="492" y="83"/>
      <point x="553" y="151"/>
      <point x="553" y="268" type="curve" smooth="yes"/>
      <point x="553" y="381"/>
      <point x="502" y="457"/>
      <point x="367" y="457" type="curve" smooth="yes"/>
      <point x="318" y="457"/>
      <point x="231" y="437"/>
      <point x="191" y="412" type="curve"/>
    </contour>
  </outline>
</glyph>
<glyph name="six" format="1">
  <advance width="744"/>
  <unicode hex="0036"/>
  <outline>
    <contour>
      <point x="131" y="366" type="line"/>
      <point x="172" y="480"/>
      <point x="272" y="564"/>
      <point x="406" y="564" type="curve" smooth="yes"/>
      <point x="592" y="564"/>
      <point x="718" y="465"/>
      <point x="718" y="268" type="curve" smooth="yes"/>
      <point x="718" y="90"/>
      <point x="583" y="-20"/>
      <point x="389" y="-20" type="curve" smooth="yes"/>
      <point x="182" y="-20"/>
      <point x="64" y="106"/>
      <point x="64" y="279" type="curve" smooth="yes"/>
      <point x="64" y="548" type="line" smooth="yes"/>
      <point x="64" y="798"/>
      <point x="235" y="900"/>
      <point x="417" y="900" type="curve" smooth="yes"/>
      <point x="549" y="900"/>
      <point x="620" y="857"/>
      <point x="677" y="804" type="curve"/>
      <point x="606" y="719" type="line"/>
      <point x="563" y="759"/>
      <point x="500" y="792"/>
      <point x="431" y="792" type="curve" smooth="yes"/>
      <point x="288" y="792"/>
      <point x="206" y="707"/>
      <point x="206" y="549" type="curve" smooth="yes"/>
      <point x="206" y="380" type="line"/>
    </contour>
    <contour>
      <point x="206" y="273" type="curve" smooth="yes"/>
      <point x="206" y="161"/>
      <point x="267" y="86"/>
      <point x="389" y="86" type="curve" smooth="yes"/>
      <point x="522" y="86"/>
      <point x="576" y="148"/>
      <point x="576" y="268" type="curve" smooth="yes"/>
      <point x="576" y="381"/>
      <point x="520" y="452"/>
      <point x="397" y="452" type="curve" smooth="yes"/>
      <point x="275" y="452"/>
      <point x="206" y="401"/>
    </contour>
  </outline>
</glyph>
<glyph name="seven" format="1">
  <advance width="744"/>
  <unicode hex="0037"/>
  <outline>
    <contour>
      <point x="111" y="765" type="line"/>
      <point x="111" y="880" type="line"/>
      <point x="660" y="880" type="line"/>
      <point x="668" y="784" type="line"/>
      <point x="307" y="0" type="line"/>
      <point x="157" y="0" type="line"/>
      <point x="555" y="857" type="line"/>
      <point x="633" y="765" type="line"/>
    </contour>
  </outline>
</glyph>
<glyph name="eight" format="1">
  <advance width="744"/>
  <unicode hex="0038"/>
  <outline>
    <contour>
      <point x="370" y="800" type="curve" smooth="yes"/>
      <point x="276" y="800"/>
      <point x="187" y="777"/>
      <point x="187" y="661" type="curve" smooth="yes"/>
      <point x="187" y="547"/>
      <point x="276" y="523"/>
      <point x="370" y="523" type="curve" smooth="yes"/>
      <point x="464" y="523"/>
      <point x="555" y="549"/>
      <point x="555" y="661" type="curve" smooth="yes"/>
      <point x="555" y="776"/>
      <point x="464" y="800"/>
    </contour>
    <contour>
      <point x="372" y="900" type="curve" smooth="yes"/>
      <point x="525" y="900"/>
      <point x="676" y="848"/>
      <point x="676" y="656" type="curve" smooth="yes"/>
      <point x="676" y="490"/>
      <point x="531" y="452"/>
      <point x="426" y="439" type="curve"/>
      <point x="426" y="487" type="line"/>
      <point x="532" y="466"/>
      <point x="680" y="429"/>
      <point x="680" y="237" type="curve" smooth="yes"/>
      <point x="680" y="31"/>
      <point x="532" y="-20"/>
      <point x="372" y="-20" type="curve" smooth="yes"/>
      <point x="210" y="-20"/>
      <point x="64" y="31"/>
      <point x="64" y="237" type="curve" smooth="yes"/>
      <point x="64" y="429"/>
      <point x="216" y="466"/>
      <point x="309" y="487" type="curve"/>
      <point x="309" y="439" type="line"/>
      <point x="214" y="452"/>
      <point x="68" y="490"/>
      <point x="68" y="656" type="curve" smooth="yes"/>
      <point x="68" y="846"/>
      <point x="215" y="900"/>
    </contour>
    <contour>
      <point x="373" y="395" type="curve" smooth="yes"/>
      <point x="265" y="395"/>
      <point x="177" y="359"/>
      <point x="177" y="242" type="curve" smooth="yes"/>
      <point x="177" y="123"/>
      <point x="265" y="83"/>
      <point x="373" y="83" type="curve" smooth="yes"/>
      <point x="479" y="83"/>
      <point x="569" y="125"/>
      <point x="569" y="242" type="curve" smooth="yes"/>
      <point x="569" y="361"/>
      <point x="479" y="395"/>
    </contour>
  </outline>
</glyph>
<glyph name="C" format="1">
  <advance width="885"/>
  <unicode hex="0043"/>
  <outline>
    <contour>
      <point x="841" y="713" type="curve"/>
      <point x="728" y="667" type="line"/>
      <point x="675" y="752"/>
      <point x="623" y="794"/>
      <point x="496" y="794" type="curve" smooth="yes"/>
      <point x="313" y="794"/>
      <point x="204" y="669"/>
      <point x="204" y="440" type="curve" smooth="yes"/>
      <point x="204" y="211"/>
      <point x="299" y="86"/>
      <point x="482" y="86" type="curve" smooth="yes"/>
      <point x="608" y="86"/>
      <point x="683" y="129"/>
      <point x="736" y="217" type="curve"/>
      <point x="836" y="161" type="line"/>
      <point x="766" y="42"/>
      <point x="655" y="-20"/>
      <point x="482" y="-20" type="curve" smooth="yes"/>
      <point x="202" y="-20"/>
      <point x="62" y="155"/>
      <point x="62" y="440" type="curve" smooth="yes"/>
      <point x="62" y="725"/>
      <point x="216" y="900"/>
      <point x="494" y="900" type="curve" smooth="yes"/>
      <point x="678" y="900"/>
      <point x="774" y="832"/>
    </contour>
  </outline>
</glyph>
<glyph name="E" format="1">
  <advance width="755"/>
  <unicode hex="0045"/>
  <outline>
    <contour>
      <point x="114" y="0" type="line"/>
      <point x="114" y="880" type="line"/>
      <point x="698" y="880" type="line"/>
      <point x="698" y="772" type="line"/>
      <point x="143" y="772" type="line"/>
      <point x="252" y="859" type="line"/>
      <point x="252" y="466" type="line"/>
      <point x="144" y="514" type="line"/>
      <point x="667" y="514" type="line"/>
      <point x="667" y="410" type="line"/>
      <point x="148" y="410" type="line"/>
      <point x="252" y="454" type="line"/>
      <point x="252" y="23" type="line"/>
      <point x="146" y="118" type="line"/>
      <point x="698" y="118" type="line"/>
      <point x="698" y="0" type="line"/>
    </contour>
  </outline>
</glyph>
<glyph name="F" format="1">
  <advance width="716"/>
  <unicode hex="0046"/>
  <outline>
    <contour>
      <point x="114" y="0" type="line"/>
      <point x="114" y="880" type="line"/>
      <point x="695" y="880" type="line"/>
      <point x="695" y="772" type="line"/>
      <point x="150" y="772" type="line"/>
      <point x="252" y="859" type="line"/>
      <point x="252" y="453" type="line"/>
      <point x="158" y="500" type="line"/>
      <point x="664" y="500" type="line"/>
      <point x="664" y="396" type="line"/>
      <point x="159" y="396" type="line"/>
      <point x="252" y="438" type="line"/>
      <point x="252" y="0" type="line"/>
    </contour>
  </outline>
</glyph>
<glyph name="I" format="1">
  <advance width="366"/>
  <unicode hex="0049"/>
  <outline>
    <contour>
      <point x="114" y="0" type="line"/>
      <point x="114" y="880" type="line"/>
      <point x="252" y="880" type="line"/>
      <point x="252" y="0" type="line"/>
    </contour>
  </outline>
</glyph>
<glyph name="M" format="1">
  <advance width="1108"/>
  <unicode hex="004D"/>
  <outline>
    <contour>
      <point x="114" y="0" type="line"/>
      <point x="114" y="880" type="line"/>
      <point x="248" y="880" type="line" smooth="yes"/>
      <point x="249" y="880"/>
      <point x="594" y="161"/>
      <point x="594" y="161" type="curve"/>
      <point x="507" y="161" type="line"/>
      <point x="855" y="880" type="line"/>
      <point x="994" y="880" type="line"/>
      <point x="994" y="0" type="line"/>
      <point x="866" y="0" type="line"/>
      <point x="866" y="827" type="line"/>
      <point x="956" y="813" type="line"/>
      <point x="610" y="119" type="line"/>
      <point x="489" y="119" type="line"/>
      <point x="489" y="119"/>
      <point x="152" y="818"/>
      <point x="151" y="818" type="curve"/>
      <point x="236" y="827" type="line"/>
      <point x="236" y="0" type="line"/>
    </contour>
  </outline>
</glyph>
<glyph name="O" format="1">
  <advance width="976"/>
  <unicode hex="004F"/>
  <outline>
    <contour>
      <point x="488" y="794" type="curve" smooth="yes"/>
      <point x="277" y="794"/>
      <point x="204" y="643"/>
      <point x="204" y="440" type="curve" smooth="yes"/>
      <point x="204" y="237"/>
      <point x="277" y="86"/>
      <point x="488" y="86" type="curve" smooth="yes"/>
      <point x="702" y="86"/>
      <point x="772" y="238"/>
      <point x="772" y="440" type="curve" smooth="yes"/>
      <point x="772" y="642"/>
      <point x="702" y="794"/>
    </contour>
    <contour>
      <point x="488" y="900" type="curve" smooth="yes"/>
      <point x="783" y="900"/>
      <point x="914" y="723"/>
      <point x="914" y="440" type="curve" smooth="yes"/>
      <point x="914" y="157"/>
      <point x="783" y="-20"/>
      <point x="488" y="-20" type="curve" smooth="yes"/>
      <point x="199" y="-20"/>
      <point x="62" y="155"/>
      <point x="62" y="440" type="curve" smooth="yes"/>
      <point x="62" y="725"/>
      <point x="199" y="900"/>
    </contour>
  </outline>
</glyph>
<glyph name="Q" format="1">
  <advance width="976"/>
  <unicode hex="0051"/>
  <outline>
    <contour>
      <point x="699" y="-186" type="line"/>
      <point x="588" y="-186" type="line"/>
      <point x="446" y="246" type="line"/>
      <point x="556" y="246" type="line"/>
    </contour>
    <component base="O"/>
  </outline>
</glyph>
<glyph name="R" format="1">
  <advance width="807"/>
  <unicode hex="0052"/>
  <outline>
    <contour>
      <point x="409" y="420" type="curve"/>
      <point x="208" y="420" type="line"/>
      <point x="252" y="455" type="line"/>
      <point x="252" y="0" type="line"/>
      <point x="114" y="0" type="line"/>
      <point x="114" y="880" type="line"/>
      <point x="446" y="880" type="line" smooth="yes"/>
      <point x="620" y="880"/>
      <point x="743" y="826"/>
      <point x="743" y="663" type="curve" smooth="yes"/>
      <point x="743" y="462"/>
      <point x="578" y="420"/>
    </contour>
    <contour>
      <point x="252" y="815" type="line"/>
      <point x="252" y="500" type="line"/>
      <point x="207" y="532" type="line"/>
      <point x="442" y="532" type="line" smooth="yes"/>
      <point x="550" y="532"/>
      <point x="606" y="561"/>
      <point x="606" y="659" type="curve" smooth="yes"/>
      <point x="606" y="755"/>
      <point x="535" y="774"/>
      <point x="444" y="774" type="curve" smooth="yes"/>
      <point x="207" y="774" type="line"/>
    </contour>
    <contour>
      <point x="741" y="0" type="line"/>
      <point x="595" y="0" type="line"/>
      <point x="437" y="470" type="line"/>
      <point x="574" y="470" type="line"/>
    </contour>
  </outline>
</glyph>
<glyph name="U" format="1">
  <advance width="905"/>
  <unicode hex="0055"/>
  <outline>
    <contour>
      <point x="809" y="880" type="line"/>
      <point x="809" y="295" type="line" smooth="yes"/>
      <point x="809" y="99"/>
      <point x="693" y="-20"/>
      <point x="453" y="-20" type="curve" smooth="yes"/>
      <point x="211" y="-20"/>
      <point x="96" y="99"/>
      <point x="96" y="295" type="curve" smooth="yes"/>
      <point x="96" y="880" type="line"/>
      <point x="234" y="880" type="line"/>
      <point x="234" y="295" type="line" smooth="yes"/>
      <point x="234" y="153"/>
      <point x="300" y="86"/>
      <point x="453" y="86" type="curve" smooth="yes"/>
      <point x="614" y="86"/>
      <point x="671" y="152"/>
      <point x="671" y="295" type="curve" smooth="yes"/>
      <point x="671" y="880" type="line"/>
    </contour>
  </outline>
</glyph>
<glyph name="W" format="1">
  <advance width="1170"/>
  <unicode hex="0057"/>
  <outline>
    <contour>
      <point x="378" y="0" type="line"/>
      <point x="625" y="781" type="line"/>
      <point x="549" y="781" type="line"/>
      <point x="801" y="0" type="line"/>
      <point x="903" y="0" type="line"/>
      <point x="1156" y="880" type="line"/>
      <point x="1033" y="880" type="line"/>
      <point x="815" y="82" type="line"/>
      <point x="894" y="82" type="line"/>
      <point x="640" y="880" type="line"/>
      <point x="544" y="880" type="line"/>
      <point x="287" y="82" type="line"/>
      <point x="369" y="82" type="line"/>
      <point x="150" y="880" type="line"/>
      <point x="14" y="880" type="line"/>
      <point x="268.0" y="0.0" type="line"/>
    </contour>
  </outline>
</glyph>
<glyph name="Y" format="1">
  <advance width="715"/>
  <unicode hex="0059"/>
  <outline>
    <contour>
      <point x="-10" y="880" type="line"/>
      <point x="151" y="880" type="line"/>
      <point x="396" y="464" type="line"/>
      <point x="321" y="464" type="line"/>
      <point x="568" y="880" type="line"/>
      <point x="725" y="880" type="line"/>
      <point x="375" y="332" type="line"/>
      <point x="424" y="473" type="line"/>
      <point x="424" y="0" type="line"/>
      <point x="286" y="0" type="line"/>
      <point x="286" y="472" type="line"/>
      <point x="337" y="337" type="line"/>
    </contour>
  </outline>
</glyph>
<glyph name="Z" format="1">
  <advance width="744"/>
  <unicode hex="005A"/>
  <outline>
    <contour>
      <point x="75" y="772" type="line"/>
      <point x="75" y="880" type="line"/>
      <point x="690" y="880" type="line"/>
      <point x="690" y="768" type="line"/>
      <point x="145" y="30" type="line"/>
      <point x="81" y="118" type="line"/>
      <point x="692" y="118" type="line"/>
      <point x="692" y="0" type="line"/>
      <point x="67" y="0" type="line"/>
      <point x="48" y="111" type="line"/>
      <point x="604" y="850" type="line"/>
      <point x="661" y="772" type="line"/>
    </contour>
  </outline>
</glyph>
<glyph name="c" format="1">
  <advance width="611"/>
  <unicode hex="0063"/>
  <outline>
    <contour>
      <point x="357" y="90" type="curve"/>
      <point x="295" y="90"/>
      <point x="185" y="121"/>
      <point x="185" y="307" type="curve" smooth="yes"/>
      <point x="185" y="498"/>
      <point x="296" y="524"/>
      <point x="354" y="528" type="curve" smooth="yes"/>
      <point x="419" y="532"/>
      <point x="472" y="502"/>
      <point x="503" y="440" type="curve"/>
      <point x="595" y="481" type="line"/>
      <point x="553" y="572"/>
      <point x="486" y="631"/>
      <point x="362" y="631" type="curve" smooth="yes"/>
      <point x="194" y="631"/>
      <point x="51" y="538"/>
      <point x="51" y="307" type="curve" smooth="yes"/>
      <point x="51" y="77"/>
      <point x="196" y="-19"/>
      <point x="355" y="-19" type="curve"/>
      <point x="454" y="-19"/>
      <point x="534" y="16"/>
      <point x="584" y="75" type="curve"/>
      <point x="519" y="157" type="line"/>
      <point x="483" y="119"/>
      <point x="415" y="86"/>
    </contour>
  </outline>
</glyph>
<glyph name="d" format="1">
  <advance width="733"/>
  <unicode hex="0064"/>
  <outline>
    <contour>
      <point x="344" y="86" type="curve" smooth="yes"/>
      <point x="256" y="86"/>
      <point x="181" y="143"/>
      <point x="181" y="305" type="curve" smooth="yes"/>
      <point x="181" y="458"/>
      <point x="242" y="524"/>
      <point x="346" y="524" type="curve" smooth="yes"/>
      <point x="420" y="524"/>
      <point x="525" y="510"/>
      <point x="525" y="303" type="curve"/>
      <point x="525" y="108"/>
      <point x="418" y="86"/>
    </contour>
    <contour>
      <point x="560" y="0" type="line"/>
      <point x="656" y="0" type="line"/>
      <point x="656" y="880" type="line"/>
      <point x="525" y="880" type="line"/>
      <point x="525" y="447" type="line"/>
      <point x="576" y="449" type="line"/>
      <point x="545" y="571"/>
      <point x="468" y="631"/>
      <point x="342" y="631" type="curve" smooth="yes"/>
      <point x="152" y="631"/>
      <point x="52" y="505"/>
      <point x="52" y="306" type="curve" smooth="yes"/>
      <point x="52" y="109"/>
      <point x="148" y="-19"/>
      <point x="335" y="-19" type="curve" smooth="yes"/>
      <point x="466" y="-19"/>
      <point x="539" y="46"/>
      <point x="560" y="156" type="curve"/>
      <point x="529" y="163" type="line"/>
    </contour>
  </outline>
</glyph>
<glyph name="f" format="1">
  <advance width="423"/>
  <unicode hex="0066"/>
  <outline>
    <contour>
      <point x="402" y="736" type="line"/>
      <point x="388" y="742"/>
      <point x="347" y="753"/>
      <point x="308" y="749" type="curve" smooth="yes"/>
      <point x="267" y="745"/>
      <point x="244" y="732"/>
      <point x="244" y="664" type="curve" smooth="yes"/>
      <point x="244" y="582" type="line"/>
      <point x="175.0" y="612.0" type="line"/>
      <point x="397" y="612" type="line"/>
      <point x="397" y="530" type="line"/>
      <point x="175" y="530" type="line"/>
      <point x="244" y="570" type="line"/>
      <point x="244" y="0" type="line"/>
      <point x="112" y="0" type="line"/>
      <point x="112" y="570" type="line"/>
      <point x="161" y="530" type="line"/>
      <point x="30" y="530" type="line"/>
      <point x="30.0" y="612.0" type="line"/>
      <point x="159.0" y="612.0" type="line"/>
      <point x="112" y="582" type="line"/>
      <point x="112" y="664" type="line" smooth="yes"/>
      <point x="112" y="803"/>
      <point x="186" y="847"/>
      <point x="298" y="847" type="curve" smooth="yes"/>
      <point x="349" y="847"/>
      <point x="390" y="835"/>
      <point x="417" y="822" type="curve"/>
    </contour>
  </outline>
</glyph>
<glyph name="j" format="1">
  <advance width="366"/>
  <unicode hex="006A"/>
  <outline>
    <contour>
      <point x="75" y="-227" type="line" smooth="yes"/>
      <point x="179" y="-227"/>
      <point x="269.0" y="-179.0"/>
      <point x="269.0" y="-76.0" type="curve"/>
      <point x="269.0" y="0.0" type="line"/>
      <point x="137" y="0" type="line"/>
      <point x="137" y="-13" type="line"/>
      <point x="137" y="-87"/>
      <point x="132" y="-117"/>
      <point x="56" y="-117" type="curve" smooth="yes"/>
      <point x="-41" y="-117" type="line"/>
      <point x="-41" y="-227" type="line"/>
    </contour>
    <component base="i" xOffset="45"/>
  </outline>
</glyph>
<glyph name="k" format="1">
  <advance width="714"/>
  <unicode hex="006B"/>
  <outline>
    <contour>
      <point x="152" y="297" type="line"/>
      <point x="224" y="280" type="line"/>
      <point x="224" y="880" type="line"/>
      <point x="92" y="880" type="line"/>
      <point x="92" y="0" type="line"/>
      <point x="224" y="0" type="line"/>
      <point x="224" y="258" type="line"/>
      <point x="172" y="189" type="line"/>
      <point x="361" y="336" type="line"/>
      <point x="300" y="358" type="line"/>
      <point x="544" y="0" type="line"/>
      <point x="700" y="0" type="line"/>
      <point x="412" y="411" type="line"/>
      <point x="412" y="348" type="line"/>
      <point x="723" y="612" type="line"/>
      <point x="529" y="612" type="line"/>
    </contour>
  </outline>
</glyph>
<glyph name="m" format="1">
  <advance width="1109"/>
  <unicode hex="006D"/>
  <outline>
    <contour>
      <point x="185" y="503" type="line"/>
      <point x="249" y="602"/>
      <point x="330" y="631"/>
      <point x="407" y="631" type="curve" smooth="yes"/>
      <point x="489" y="631"/>
      <point x="558" y="605"/>
      <point x="585" y="504" type="curve"/>
      <point x="564" y="498" type="line"/>
      <point x="612" y="575"/>
      <point x="713" y="631"/>
      <point x="823" y="631" type="curve" smooth="yes"/>
      <point x="923" y="631"/>
      <point x="1041" y="578"/>
      <point x="1041" y="405" type="curve"/>
      <point x="1041" y="0" type="line"/>
      <point x="907" y="0" type="line"/>
      <point x="907" y="379" type="line"/>
      <point x="907" y="473"/>
      <point x="874" y="514"/>
      <point x="792" y="514" type="curve" smooth="yes"/>
      <point x="704" y="514"/>
      <point x="633" y="454"/>
      <point x="612" y="412" type="curve"/>
      <point x="624" y="454" type="line"/>
      <point x="628" y="436"/>
      <point x="626" y="408"/>
      <point x="626" y="386" type="curve" smooth="yes"/>
      <point x="626" y="0" type="line"/>
      <point x="492" y="0" type="line"/>
      <point x="492" y="386" type="line" smooth="yes"/>
      <point x="492" y="470"/>
      <point x="458" y="514"/>
      <point x="372" y="514" type="curve" smooth="yes"/>
      <point x="326" y="514"/>
      <point x="251" y="493"/>
      <point x="195" y="410" type="curve"/>
      <point x="211" y="491" type="line"/>
      <point x="211" y="0" type="line"/>
      <point x="77" y="0" type="line"/>
      <point x="77" y="612" type="line"/>
      <point x="192" y="612" type="line"/>
      <point x="211" y="510" type="line"/>
    </contour>
  </outline>
</glyph>
<glyph name="n" format="1">
  <advance width="704"/>
  <unicode hex="006E"/>
  <outline>
    <contour>
      <point x="183" y="502" type="line"/>
      <point x="246" y="596"/>
      <point x="327" y="631"/>
      <point x="414" y="631" type="curve" smooth="yes"/>
      <point x="532" y="631"/>
      <point x="636" y="560"/>
      <point x="636" y="406" type="curve" smooth="yes"/>
      <point x="636" y="0" type="line"/>
      <point x="502" y="0" type="line"/>
      <point x="502" y="396" type="line" smooth="yes"/>
      <point x="502" y="479"/>
      <point x="452" y="514"/>
      <point x="379" y="514" type="curve" smooth="yes"/>
      <point x="305" y="514"/>
      <point x="236" y="472"/>
      <point x="196" y="412" type="curve"/>
      <point x="211" y="453" type="line"/>
      <point x="211" y="0" type="line"/>
      <point x="77" y="0" type="line"/>
      <point x="77" y="612" type="line"/>
      <point x="192" y="612" type="line"/>
      <point x="211" y="510" type="line"/>
    </contour>
  </outline>
</glyph>
<glyph name="q" format="1">
  <advance width="733"/>
  <unicode hex="0071"/>
  <outline>
    <contour>
      <point x="656" y="-245" type="line"/>
      <point x="656" y="612" type="line"/>
      <point x="551" y="612" type="line"/>
      <point x="523" y="504" type="line"/>
      <point x="545" y="512" type="line"/>
      <point x="522" y="572"/>
      <point x="471" y="631"/>
      <point x="343" y="631" type="curve" smooth="yes"/>
      <point x="153" y="631"/>
      <point x="52" y="505"/>
      <point x="52" y="306" type="curve" smooth="yes"/>
      <point x="52" y="109"/>
      <point x="165" y="-19"/>
      <point x="339" y="-19" type="curve" smooth="yes"/>
      <point x="461" y="-19"/>
      <point x="555" y="43"/>
      <point x="578" y="210" type="curve"/>
      <point x="525" y="184" type="line"/>
      <point x="525" y="-245" type="line"/>
    </contour>
    <contour>
      <point x="351" y="84" type="curve" smooth="yes"/>
      <point x="236" y="84"/>
      <point x="181" y="162"/>
      <point x="181" y="315" type="curve" smooth="yes"/>
      <point x="181" y="468"/>
      <point x="247" y="525"/>
      <point x="352" y="525" type="curve" smooth="yes"/>
      <point x="445" y="525"/>
      <point x="525" y="480"/>
      <point x="525" y="307" type="curve" smooth="yes"/>
      <point x="525" y="142"/>
      <point x="447" y="84"/>
    </contour>
  </outline>
</glyph>
<glyph name="t" format="1">
  <advance width="452"/>
  <unicode hex="0074"/>
  <outline>
    <contour>
      <point x="121" y="169" type="line" smooth="yes"/>
      <point x="121" y="67"/>
      <point x="168" y="-9"/>
      <point x="309.0" y="-9.0" type="curve" smooth="yes"/>
      <point x="428" y="-9" type="line"/>
      <point x="428" y="90" type="line"/>
      <point x="313" y="90" type="line" smooth="yes"/>
      <point x="264" y="90"/>
      <point x="253" y="120"/>
      <point x="253" y="174" type="curve" smooth="yes"/>
      <point x="253" y="571" type="line"/>
      <point x="190" y="530" type="line"/>
      <point x="422" y="530" type="line"/>
      <point x="422" y="612" type="line"/>
      <point x="190" y="612" type="line"/>
      <point x="253" y="582" type="line"/>
      <point x="253" y="800" type="line"/>
      <point x="121" y="800" type="line"/>
      <point x="121" y="583" type="line"/>
      <point x="168" y="612" type="line"/>
      <point x="8" y="612" type="line"/>
      <point x="8" y="530" type="line"/>
      <point x="168" y="530" type="line"/>
      <point x="121" y="570" type="line"/>
    </contour>
  </outline>
</glyph>
<glyph name="u" format="1">
  <advance width="694"/>
  <unicode hex="0075"/>
  <outline>
    <contour>
      <point x="504" y="0" type="line"/>
      <point x="617" y="0" type="line"/>
      <point x="617" y="612" type="line"/>
      <point x="485" y="612" type="line"/>
      <point x="485" y="148" type="line"/>
      <point x="528" y="236" type="line"/>
      <point x="486" y="173"/>
      <point x="429" y="98"/>
      <point x="323" y="98" type="curve" smooth="yes"/>
      <point x="237" y="98"/>
      <point x="200" y="140"/>
      <point x="200" y="227" type="curve" smooth="yes"/>
      <point x="200" y="612" type="line"/>
      <point x="68" y="612" type="line"/>
      <point x="68" y="207" type="line" smooth="yes"/>
      <point x="68" y="54"/>
      <point x="171" y="-19"/>
      <point x="289" y="-19" type="curve" smooth="yes"/>
      <point x="391" y="-19"/>
      <point x="472" y="30"/>
      <point x="516" y="110" type="curve"/>
      <point x="485" y="104" type="line"/>
    </contour>
  </outline>
</glyph>
<glyph name="x" format="1">
  <advance width="577"/>
  <unicode hex="0078"/>
  <outline>
    <contour>
      <point x="13" y="612" type="line"/>
      <point x="159" y="612" type="line"/>
      <point x="585" y="0" type="line"/>
      <point x="436" y="0" type="line"/>
    </contour>
    <contour>
      <point x="277" y="364" type="line"/>
      <point x="448" y="612" type="line"/>
      <point x="580" y="612" type="line"/>
      <point x="363" y="297" type="line"/>
      <point x="318" y="268" type="line"/>
      <point x="129" y="0" type="line"/>
      <point x="-8" y="0" type="line"/>
      <point x="226" y="326" type="line"/>
    </contour>
  </outline>
</glyph>
<glyph name="y" format="1">
  <advance width="598"/>
  <unicode hex="0079"/>
  <outline>
    <contour>
      <point x="126" y="-245" type="line"/>
      <point x="257" y="-245" type="line"/>
      <point x="596" y="612" type="line"/>
      <point x="470" y="612" type="line"/>
      <point x="268" y="85" type="line"/>
      <point x="359" y="73" type="line"/>
      <point x="128" y="612" type="line"/>
      <point x="-2" y="612" type="line"/>
      <point x="-2" y="612"/>
      <point x="269" y="-19"/>
      <point x="269" y="-19" type="curve"/>
      <point x="253" y="77" type="line"/>
    </contour>
  </outline>
</glyph>
<glyph name="z" format="1">
  <advance width="543"/>
  <unicode hex="007A"/>
  <outline>
    <contour>
      <point x="63" y="516" type="line"/>
      <point x="63" y="612" type="line"/>
      <point x="499" y="612" type="line"/>
      <point x="507" y="519" type="line"/>
      <point x="145" y="29" type="line"/>
      <point x="85" y="96" type="line"/>
      <point x="503" y="96" type="line"/>
      <point x="503" y="0" type="line"/>
      <point x="56" y="0" type="line"/>
      <point x="48" y="101" type="line"/>
      <point x="48" y="101"/>
      <point x="415" y="593"/>
      <point x="416" y="593" type="curve"/>
      <point x="470" y="516" type="line"/>
    </contour>
  </outline>
</glyph>
